{
	"patcher" : 	{
		"fileversion" : 1,
		"rect" : [ 525.0, 91.0, 1114.0, 729.0 ],
		"bglocked" : 0,
		"defrect" : [ 525.0, 91.0, 1114.0, 729.0 ],
		"openrect" : [ 0.0, 0.0, 0.0, 0.0 ],
		"openinpresentation" : 0,
		"default_fontsize" : 12.0,
		"default_fontface" : 0,
		"default_fontname" : "Monaco",
		"gridonopen" : 0,
		"gridsize" : [ 15.0, 15.0 ],
		"gridsnaponopen" : 0,
		"toolbarvisible" : 1,
		"boxanimatetime" : 200,
		"imprint" : 0,
		"enablehscroll" : 1,
		"enablevscroll" : 1,
		"devicewidth" : 0.0,
		"boxes" : [ 			{
				"box" : 				{
					"maxclass" : "comment",
					"text" : "you may want to\nconsider changing\nthis threshold as\nneeded.",
					"linecount" : 4,
					"numinlets" : 1,
					"patching_rect" : [ 15.0, 375.0, 150.0, 71.0 ],
					"id" : "obj-23",
					"fontname" : "Monaco",
					"numoutlets" : 0,
					"fontsize" : 12.0
				}

			}
, 			{
				"box" : 				{
					"maxclass" : "newobj",
					"text" : "+ 1",
					"numinlets" : 2,
					"patching_rect" : [ 630.0, 300.0, 32.5, 23.0 ],
					"id" : "obj-14",
					"fontname" : "Monaco",
					"numoutlets" : 1,
					"outlettype" : [ "int" ],
					"fontsize" : 12.0
				}

			}
, 			{
				"box" : 				{
					"maxclass" : "newobj",
					"text" : "sel 1",
					"numinlets" : 2,
					"patching_rect" : [ 675.0, 300.0, 47.0, 23.0 ],
					"id" : "obj-1",
					"fontname" : "Monaco",
					"numoutlets" : 2,
					"outlettype" : [ "bang", "" ],
					"fontsize" : 12.0
				}

			}
, 			{
				"box" : 				{
					"maxclass" : "newobj",
					"text" : "counter 20",
					"numinlets" : 5,
					"patching_rect" : [ 645.0, 270.0, 83.0, 23.0 ],
					"id" : "obj-29",
					"fontname" : "Monaco",
					"numoutlets" : 4,
					"outlettype" : [ "int", "", "", "int" ],
					"fontsize" : 12.0
				}

			}
, 			{
				"box" : 				{
					"maxclass" : "newobj",
					"text" : "prepend target",
					"numinlets" : 1,
					"patching_rect" : [ 630.0, 375.0, 111.0, 23.0 ],
					"id" : "obj-95",
					"fontname" : "Monaco",
					"numoutlets" : 1,
					"outlettype" : [ "" ],
					"fontsize" : 12.0
				}

			}
, 			{
				"box" : 				{
					"maxclass" : "newobj",
					"text" : "poly~ playgrain 20",
					"numinlets" : 1,
					"patching_rect" : [ 630.0, 465.0, 140.0, 23.0 ],
					"id" : "obj-94",
					"fontname" : "Monaco",
					"numoutlets" : 1,
					"outlettype" : [ "signal" ],
					"fontsize" : 12.0
				}

			}
, 			{
				"box" : 				{
					"maxclass" : "newobj",
					"text" : "t b i",
					"numinlets" : 1,
					"patching_rect" : [ 780.0, 225.0, 47.0, 23.0 ],
					"id" : "obj-92",
					"fontname" : "Monaco",
					"numoutlets" : 2,
					"outlettype" : [ "bang", "int" ],
					"fontsize" : 12.0
				}

			}
, 			{
				"box" : 				{
					"maxclass" : "newobj",
					"text" : "loadbang",
					"numinlets" : 1,
					"patching_rect" : [ 645.0, 210.0, 68.0, 23.0 ],
					"id" : "obj-91",
					"fontname" : "Monaco",
					"numoutlets" : 1,
					"outlettype" : [ "bang" ],
					"fontsize" : 12.0
				}

			}
, 			{
				"box" : 				{
					"maxclass" : "number",
					"numinlets" : 1,
					"patching_rect" : [ 630.0, 345.0, 50.0, 23.0 ],
					"id" : "obj-88",
					"fontname" : "Monaco",
					"numoutlets" : 2,
					"outlettype" : [ "int", "bang" ],
					"fontsize" : 12.0
				}

			}
, 			{
				"box" : 				{
					"maxclass" : "newobj",
					"text" : "s grainsize",
					"numinlets" : 1,
					"patching_rect" : [ 780.0, 375.0, 90.0, 23.0 ],
					"id" : "obj-83",
					"fontname" : "Monaco",
					"numoutlets" : 0,
					"fontsize" : 12.0
				}

			}
, 			{
				"box" : 				{
					"maxclass" : "comment",
					"text" : "store sound",
					"linecount" : 2,
					"numinlets" : 1,
					"patching_rect" : [ 300.0, 75.0, 95.0, 71.0 ],
					"id" : "obj-78",
					"fontname" : "Monaco",
					"numoutlets" : 0,
					"fontsize" : 24.0
				}

			}
, 			{
				"box" : 				{
					"maxclass" : "comment",
					"text" : "play grains",
					"numinlets" : 1,
					"patching_rect" : [ 795.0, 105.0, 315.0, 39.0 ],
					"id" : "obj-77",
					"fontname" : "Monaco",
					"numoutlets" : 0,
					"fontsize" : 24.0
				}

			}
, 			{
				"box" : 				{
					"maxclass" : "comment",
					"text" : "record incoming sound",
					"numinlets" : 1,
					"patching_rect" : [ 240.0, 300.0, 315.0, 39.0 ],
					"id" : "obj-76",
					"fontname" : "Monaco",
					"numoutlets" : 0,
					"fontsize" : 24.0
				}

			}
, 			{
				"box" : 				{
					"maxclass" : "button",
					"numinlets" : 1,
					"patching_rect" : [ 495.0, 90.0, 20.0, 20.0 ],
					"id" : "obj-74",
					"numoutlets" : 1,
					"outlettype" : [ "bang" ]
				}

			}
, 			{
				"box" : 				{
					"maxclass" : "newobj",
					"text" : "r record",
					"numinlets" : 0,
					"patching_rect" : [ 420.0, 420.0, 68.0, 23.0 ],
					"id" : "obj-72",
					"fontname" : "Monaco",
					"numoutlets" : 1,
					"outlettype" : [ "" ],
					"fontsize" : 12.0
				}

			}
, 			{
				"box" : 				{
					"maxclass" : "newobj",
					"text" : "s record",
					"numinlets" : 1,
					"patching_rect" : [ 495.0, 150.0, 68.0, 23.0 ],
					"id" : "obj-71",
					"fontname" : "Monaco",
					"numoutlets" : 0,
					"fontsize" : 12.0
				}

			}
, 			{
				"box" : 				{
					"maxclass" : "message",
					"text" : "reset",
					"numinlets" : 2,
					"patching_rect" : [ 495.0, 120.0, 47.0, 21.0 ],
					"id" : "obj-70",
					"fontname" : "Monaco",
					"numoutlets" : 1,
					"outlettype" : [ "" ],
					"fontsize" : 12.0
				}

			}
, 			{
				"box" : 				{
					"maxclass" : "newobj",
					"text" : "route /grainno",
					"numinlets" : 1,
					"patching_rect" : [ 780.0, 60.0, 111.0, 23.0 ],
					"id" : "obj-64",
					"fontname" : "Monaco",
					"numoutlets" : 2,
					"outlettype" : [ "", "" ],
					"fontsize" : 12.0
				}

			}
, 			{
				"box" : 				{
					"maxclass" : "newobj",
					"text" : "udpreceive 1200",
					"numinlets" : 1,
					"patching_rect" : [ 780.0, 30.0, 119.0, 23.0 ],
					"id" : "obj-65",
					"fontname" : "Monaco",
					"numoutlets" : 1,
					"outlettype" : [ "" ],
					"fontsize" : 12.0
				}

			}
, 			{
				"box" : 				{
					"maxclass" : "comment",
					"text" : "GRAIN ID",
					"numinlets" : 1,
					"patching_rect" : [ 900.0, 165.0, 195.0, 47.0 ],
					"id" : "obj-62",
					"fontname" : "Monaco",
					"numoutlets" : 0,
					"fontsize" : 30.0
				}

			}
, 			{
				"box" : 				{
					"maxclass" : "number",
					"numinlets" : 1,
					"patching_rect" : [ 780.0, 165.0, 120.0, 47.0 ],
					"id" : "obj-63",
					"fontname" : "Monaco",
					"numoutlets" : 2,
					"outlettype" : [ "int", "bang" ],
					"fontsize" : 30.0
				}

			}
, 			{
				"box" : 				{
					"maxclass" : "meter~",
					"numinlets" : 1,
					"patching_rect" : [ 630.0, 510.0, 180.0, 45.0 ],
					"id" : "obj-57",
					"numoutlets" : 1,
					"outlettype" : [ "float" ]
				}

			}
, 			{
				"box" : 				{
					"maxclass" : "ezdac~",
					"numinlets" : 2,
					"patching_rect" : [ 825.0, 570.0, 45.0, 45.0 ],
					"id" : "obj-56",
					"numoutlets" : 0
				}

			}
, 			{
				"box" : 				{
					"maxclass" : "meter~",
					"numinlets" : 1,
					"patching_rect" : [ 885.0, 570.0, 180.0, 45.0 ],
					"id" : "obj-55",
					"numoutlets" : 1,
					"outlettype" : [ "float" ]
				}

			}
, 			{
				"box" : 				{
					"maxclass" : "newobj",
					"text" : "loadmess 500",
					"numinlets" : 1,
					"patching_rect" : [ 780.0, 285.0, 97.0, 23.0 ],
					"id" : "obj-40",
					"fontname" : "Monaco",
					"numoutlets" : 1,
					"outlettype" : [ "" ],
					"fontsize" : 12.0
				}

			}
, 			{
				"box" : 				{
					"maxclass" : "comment",
					"text" : "GRAIN SIZE",
					"numinlets" : 1,
					"patching_rect" : [ 900.0, 315.0, 195.0, 47.0 ],
					"id" : "obj-39",
					"fontname" : "Monaco",
					"numoutlets" : 0,
					"fontsize" : 30.0
				}

			}
, 			{
				"box" : 				{
					"maxclass" : "number",
					"numinlets" : 1,
					"patching_rect" : [ 780.0, 315.0, 120.0, 47.0 ],
					"id" : "obj-37",
					"fontname" : "Monaco",
					"numoutlets" : 2,
					"outlettype" : [ "int", "bang" ],
					"fontsize" : 30.0
				}

			}
, 			{
				"box" : 				{
					"maxclass" : "gain~",
					"numinlets" : 2,
					"patching_rect" : [ 825.0, 510.0, 240.0, 45.0 ],
					"id" : "obj-31",
					"numoutlets" : 2,
					"outlettype" : [ "signal", "int" ]
				}

			}
, 			{
				"box" : 				{
					"maxclass" : "toggle",
					"numinlets" : 1,
					"patching_rect" : [ 270.0, 435.0, 20.0, 20.0 ],
					"id" : "obj-26",
					"numoutlets" : 1,
					"outlettype" : [ "int" ]
				}

			}
, 			{
				"box" : 				{
					"maxclass" : "message",
					"text" : "1",
					"numinlets" : 2,
					"patching_rect" : [ 225.0, 405.0, 32.5, 21.0 ],
					"id" : "obj-24",
					"fontname" : "Monaco",
					"numoutlets" : 1,
					"outlettype" : [ "" ],
					"fontsize" : 12.0
				}

			}
, 			{
				"box" : 				{
					"maxclass" : "message",
					"text" : "0",
					"numinlets" : 2,
					"patching_rect" : [ 270.0, 405.0, 32.5, 21.0 ],
					"id" : "obj-22",
					"fontname" : "Monaco",
					"numoutlets" : 1,
					"outlettype" : [ "" ],
					"fontsize" : 12.0
				}

			}
, 			{
				"box" : 				{
					"maxclass" : "newobj",
					"text" : "b",
					"numinlets" : 1,
					"patching_rect" : [ 435.0, 90.0, 32.5, 23.0 ],
					"id" : "obj-18",
					"fontname" : "Monaco",
					"numoutlets" : 2,
					"outlettype" : [ "bang", "bang" ],
					"fontsize" : 12.0
				}

			}
, 			{
				"box" : 				{
					"maxclass" : "newobj",
					"text" : "route /clear",
					"numinlets" : 1,
					"patching_rect" : [ 435.0, 60.0, 97.0, 23.0 ],
					"id" : "obj-17",
					"fontname" : "Monaco",
					"numoutlets" : 2,
					"outlettype" : [ "", "" ],
					"fontsize" : 12.0
				}

			}
, 			{
				"box" : 				{
					"maxclass" : "newobj",
					"text" : "udpreceive 1200",
					"numinlets" : 1,
					"patching_rect" : [ 435.0, 30.0, 119.0, 23.0 ],
					"id" : "obj-16",
					"fontname" : "Monaco",
					"numoutlets" : 1,
					"outlettype" : [ "" ],
					"fontsize" : 12.0
				}

			}
, 			{
				"box" : 				{
					"maxclass" : "message",
					"text" : "clear",
					"numinlets" : 2,
					"patching_rect" : [ 435.0, 120.0, 47.0, 21.0 ],
					"id" : "obj-15",
					"fontname" : "Monaco",
					"numoutlets" : 1,
					"outlettype" : [ "" ],
					"fontsize" : 12.0
				}

			}
, 			{
				"box" : 				{
					"maxclass" : "message",
					"text" : "append 1",
					"numinlets" : 2,
					"patching_rect" : [ 345.0, 420.0, 68.0, 21.0 ],
					"id" : "obj-13",
					"fontname" : "Monaco",
					"numoutlets" : 1,
					"outlettype" : [ "" ],
					"fontsize" : 12.0
				}

			}
, 			{
				"box" : 				{
					"maxclass" : "newobj",
					"text" : "loadbang",
					"numinlets" : 1,
					"patching_rect" : [ 345.0, 390.0, 68.0, 23.0 ],
					"id" : "obj-11",
					"fontname" : "Monaco",
					"numoutlets" : 1,
					"outlettype" : [ "bang" ],
					"fontsize" : 12.0
				}

			}
, 			{
				"box" : 				{
					"maxclass" : "newobj",
					"text" : "record~ sample",
					"numinlets" : 3,
					"patching_rect" : [ 270.0, 465.0, 111.0, 23.0 ],
					"id" : "obj-10",
					"fontname" : "Monaco",
					"numoutlets" : 1,
					"outlettype" : [ "signal" ],
					"fontsize" : 12.0
				}

			}
, 			{
				"box" : 				{
					"maxclass" : "newobj",
					"text" : "buffer~ sample 10000",
					"numinlets" : 1,
					"patching_rect" : [ 240.0, 30.0, 155.0, 23.0 ],
					"id" : "obj-8",
					"fontname" : "Monaco",
					"numoutlets" : 2,
					"outlettype" : [ "float", "bang" ],
					"fontsize" : 12.0
				}

			}
, 			{
				"box" : 				{
					"maxclass" : "newobj",
					"text" : "edge~",
					"numinlets" : 1,
					"patching_rect" : [ 240.0, 375.0, 47.0, 23.0 ],
					"id" : "obj-7",
					"fontname" : "Monaco",
					"numoutlets" : 2,
					"outlettype" : [ "bang", "bang" ],
					"fontsize" : 12.0
				}

			}
, 			{
				"box" : 				{
					"maxclass" : "newobj",
					"text" : "gate~",
					"numinlets" : 2,
					"patching_rect" : [ 195.0, 345.0, 47.0, 23.0 ],
					"id" : "obj-6",
					"fontname" : "Monaco",
					"numoutlets" : 1,
					"outlettype" : [ "signal" ],
					"fontsize" : 12.0
				}

			}
, 			{
				"box" : 				{
					"maxclass" : "newobj",
					"text" : "> -35",
					"numinlets" : 2,
					"patching_rect" : [ 15.0, 345.0, 47.0, 23.0 ],
					"id" : "obj-5",
					"fontname" : "Monaco",
					"numoutlets" : 1,
					"outlettype" : [ "int" ],
					"fontsize" : 12.0
				}

			}
, 			{
				"box" : 				{
					"maxclass" : "levelmeter~",
					"numinlets" : 1,
					"patching_rect" : [ 15.0, 255.0, 128.0, 64.0 ],
					"id" : "obj-4",
					"numoutlets" : 1,
					"outlettype" : [ "int" ]
				}

			}
, 			{
				"box" : 				{
					"maxclass" : "ezadc~",
					"numinlets" : 1,
					"patching_rect" : [ 15.0, 15.0, 195.0, 195.0 ],
					"id" : "obj-2",
					"numoutlets" : 2,
					"outlettype" : [ "signal", "signal" ]
				}

			}
, 			{
				"box" : 				{
					"maxclass" : "panel",
					"numinlets" : 1,
					"patching_rect" : [ 225.0, 15.0, 180.0, 60.0 ],
					"id" : "obj-9",
					"numoutlets" : 0,
					"bgcolor" : [ 0.843137, 0.741176, 0.431373, 1.0 ]
				}

			}
 ],
		"lines" : [ 			{
				"patchline" : 				{
					"source" : [ "obj-91", 0 ],
					"destination" : [ "obj-29", 0 ],
					"hidden" : 0,
					"midpoints" : [  ]
				}

			}
, 			{
				"patchline" : 				{
					"source" : [ "obj-29", 2 ],
					"destination" : [ "obj-1", 0 ],
					"hidden" : 0,
					"midpoints" : [  ]
				}

			}
, 			{
				"patchline" : 				{
					"source" : [ "obj-1", 0 ],
					"destination" : [ "obj-29", 3 ],
					"hidden" : 0,
					"midpoints" : [ 684.5, 330.0, 731.0, 330.0, 731.0, 261.0, 702.5, 261.0 ]
				}

			}
, 			{
				"patchline" : 				{
					"source" : [ "obj-29", 0 ],
					"destination" : [ "obj-14", 0 ],
					"hidden" : 0,
					"midpoints" : [  ]
				}

			}
, 			{
				"patchline" : 				{
					"source" : [ "obj-92", 0 ],
					"destination" : [ "obj-29", 0 ],
					"hidden" : 0,
					"midpoints" : [ 789.5, 252.0, 654.5, 252.0 ]
				}

			}
, 			{
				"patchline" : 				{
					"source" : [ "obj-5", 0 ],
					"destination" : [ "obj-6", 0 ],
					"hidden" : 0,
					"midpoints" : [ 24.5, 374.0, 183.0, 374.0, 183.0, 337.0, 204.5, 337.0 ]
				}

			}
, 			{
				"patchline" : 				{
					"source" : [ "obj-4", 0 ],
					"destination" : [ "obj-5", 0 ],
					"hidden" : 0,
					"midpoints" : [  ]
				}

			}
, 			{
				"patchline" : 				{
					"source" : [ "obj-2", 0 ],
					"destination" : [ "obj-4", 0 ],
					"hidden" : 0,
					"midpoints" : [  ]
				}

			}
, 			{
				"patchline" : 				{
					"source" : [ "obj-2", 0 ],
					"destination" : [ "obj-6", 1 ],
					"hidden" : 0,
					"midpoints" : [ 24.5, 235.0, 232.5, 235.0 ]
				}

			}
, 			{
				"patchline" : 				{
					"source" : [ "obj-6", 0 ],
					"destination" : [ "obj-7", 0 ],
					"hidden" : 0,
					"midpoints" : [  ]
				}

			}
, 			{
				"patchline" : 				{
					"source" : [ "obj-11", 0 ],
					"destination" : [ "obj-13", 0 ],
					"hidden" : 0,
					"midpoints" : [  ]
				}

			}
, 			{
				"patchline" : 				{
					"source" : [ "obj-13", 0 ],
					"destination" : [ "obj-10", 0 ],
					"hidden" : 0,
					"midpoints" : [  ]
				}

			}
, 			{
				"patchline" : 				{
					"source" : [ "obj-16", 0 ],
					"destination" : [ "obj-17", 0 ],
					"hidden" : 0,
					"midpoints" : [  ]
				}

			}
, 			{
				"patchline" : 				{
					"source" : [ "obj-17", 0 ],
					"destination" : [ "obj-18", 0 ],
					"hidden" : 0,
					"midpoints" : [  ]
				}

			}
, 			{
				"patchline" : 				{
					"source" : [ "obj-18", 0 ],
					"destination" : [ "obj-15", 0 ],
					"hidden" : 0,
					"midpoints" : [ 444.5, 116.0, 444.5, 116.0 ]
				}

			}
, 			{
				"patchline" : 				{
					"source" : [ "obj-7", 1 ],
					"destination" : [ "obj-22", 0 ],
					"hidden" : 0,
					"midpoints" : [  ]
				}

			}
, 			{
				"patchline" : 				{
					"source" : [ "obj-7", 0 ],
					"destination" : [ "obj-24", 0 ],
					"hidden" : 0,
					"midpoints" : [  ]
				}

			}
, 			{
				"patchline" : 				{
					"source" : [ "obj-26", 0 ],
					"destination" : [ "obj-10", 0 ],
					"hidden" : 0,
					"midpoints" : [  ]
				}

			}
, 			{
				"patchline" : 				{
					"source" : [ "obj-24", 0 ],
					"destination" : [ "obj-26", 0 ],
					"hidden" : 0,
					"midpoints" : [  ]
				}

			}
, 			{
				"patchline" : 				{
					"source" : [ "obj-22", 0 ],
					"destination" : [ "obj-26", 0 ],
					"hidden" : 0,
					"midpoints" : [  ]
				}

			}
, 			{
				"patchline" : 				{
					"source" : [ "obj-2", 0 ],
					"destination" : [ "obj-10", 0 ],
					"hidden" : 0,
					"midpoints" : [ 24.5, 236.0, 167.0, 236.0, 167.0, 459.0, 279.5, 459.0 ]
				}

			}
, 			{
				"patchline" : 				{
					"source" : [ "obj-15", 0 ],
					"destination" : [ "obj-8", 0 ],
					"hidden" : 0,
					"midpoints" : [ 444.5, 150.0, 424.5, 150.0, 424.5, 20.0, 249.5, 20.0 ]
				}

			}
, 			{
				"patchline" : 				{
					"source" : [ "obj-40", 0 ],
					"destination" : [ "obj-37", 0 ],
					"hidden" : 0,
					"midpoints" : [  ]
				}

			}
, 			{
				"patchline" : 				{
					"source" : [ "obj-31", 0 ],
					"destination" : [ "obj-55", 0 ],
					"hidden" : 0,
					"midpoints" : [  ]
				}

			}
, 			{
				"patchline" : 				{
					"source" : [ "obj-31", 0 ],
					"destination" : [ "obj-56", 0 ],
					"hidden" : 0,
					"midpoints" : [  ]
				}

			}
, 			{
				"patchline" : 				{
					"source" : [ "obj-31", 0 ],
					"destination" : [ "obj-56", 1 ],
					"hidden" : 0,
					"midpoints" : [  ]
				}

			}
, 			{
				"patchline" : 				{
					"source" : [ "obj-65", 0 ],
					"destination" : [ "obj-64", 0 ],
					"hidden" : 0,
					"midpoints" : [  ]
				}

			}
, 			{
				"patchline" : 				{
					"source" : [ "obj-64", 0 ],
					"destination" : [ "obj-63", 0 ],
					"hidden" : 0,
					"midpoints" : [  ]
				}

			}
, 			{
				"patchline" : 				{
					"source" : [ "obj-18", 1 ],
					"destination" : [ "obj-70", 0 ],
					"hidden" : 0,
					"midpoints" : [  ]
				}

			}
, 			{
				"patchline" : 				{
					"source" : [ "obj-70", 0 ],
					"destination" : [ "obj-71", 0 ],
					"hidden" : 0,
					"midpoints" : [  ]
				}

			}
, 			{
				"patchline" : 				{
					"source" : [ "obj-72", 0 ],
					"destination" : [ "obj-10", 0 ],
					"hidden" : 0,
					"midpoints" : [ 429.5, 459.0, 279.5, 459.0 ]
				}

			}
, 			{
				"patchline" : 				{
					"source" : [ "obj-74", 0 ],
					"destination" : [ "obj-18", 0 ],
					"hidden" : 0,
					"midpoints" : [ 504.5, 115.0, 471.0, 115.0, 471.0, 86.0, 444.5, 86.0 ]
				}

			}
, 			{
				"patchline" : 				{
					"source" : [ "obj-37", 0 ],
					"destination" : [ "obj-83", 0 ],
					"hidden" : 0,
					"midpoints" : [  ]
				}

			}
, 			{
				"patchline" : 				{
					"source" : [ "obj-63", 0 ],
					"destination" : [ "obj-92", 0 ],
					"hidden" : 0,
					"midpoints" : [  ]
				}

			}
, 			{
				"patchline" : 				{
					"source" : [ "obj-88", 0 ],
					"destination" : [ "obj-95", 0 ],
					"hidden" : 0,
					"midpoints" : [  ]
				}

			}
, 			{
				"patchline" : 				{
					"source" : [ "obj-92", 1 ],
					"destination" : [ "obj-94", 0 ],
					"hidden" : 0,
					"midpoints" : [ 817.5, 268.0, 760.0, 268.0, 760.0, 446.0, 639.5, 446.0 ]
				}

			}
, 			{
				"patchline" : 				{
					"source" : [ "obj-95", 0 ],
					"destination" : [ "obj-94", 0 ],
					"hidden" : 0,
					"midpoints" : [  ]
				}

			}
, 			{
				"patchline" : 				{
					"source" : [ "obj-94", 0 ],
					"destination" : [ "obj-57", 0 ],
					"hidden" : 0,
					"midpoints" : [  ]
				}

			}
, 			{
				"patchline" : 				{
					"source" : [ "obj-94", 0 ],
					"destination" : [ "obj-31", 0 ],
					"hidden" : 0,
					"midpoints" : [ 639.5, 498.5, 834.5, 498.5 ]
				}

			}
, 			{
				"patchline" : 				{
					"source" : [ "obj-14", 0 ],
					"destination" : [ "obj-88", 0 ],
					"hidden" : 0,
					"midpoints" : [  ]
				}

			}
 ]
	}

}
